<mxfile host="app.diagrams.net" modified="2023-03-01T00:18:21.191Z" agent="5.0 (Windows NT 10.0; Win64; x64) AppleWebKit/537.36 (KHTML, like Gecko) Chrome/110.0.0.0 Safari/537.36 Edg/110.0.1587.57" etag="ZovTIn2qyK8OPdWbxMk5" version="20.8.23" type="github">
  <diagram name="Página-1" id="wnXb-nUzD1_W0bTYrbSn">
    <mxGraphModel dx="1244" dy="573" grid="1" gridSize="10" guides="1" tooltips="1" connect="1" arrows="1" fold="1" page="1" pageScale="1" pageWidth="827" pageHeight="1169" math="0" shadow="0">
      <root>
        <mxCell id="0" />
        <mxCell id="1" parent="0" />
        <mxCell id="q6MMMf9_-i9ZlwA7kOC0-4" style="edgeStyle=orthogonalEdgeStyle;rounded=0;orthogonalLoop=1;jettySize=auto;html=1;exitX=0.5;exitY=1;exitDx=0;exitDy=0;exitPerimeter=0;" edge="1" parent="1" source="q6MMMf9_-i9ZlwA7kOC0-1" target="q6MMMf9_-i9ZlwA7kOC0-2">
          <mxGeometry relative="1" as="geometry" />
        </mxCell>
        <mxCell id="q6MMMf9_-i9ZlwA7kOC0-1" value="início" style="strokeWidth=2;html=1;shape=mxgraph.flowchart.start_2;whiteSpace=wrap;" vertex="1" parent="1">
          <mxGeometry x="364" y="80" width="100" height="100" as="geometry" />
        </mxCell>
        <mxCell id="q6MMMf9_-i9ZlwA7kOC0-6" style="edgeStyle=orthogonalEdgeStyle;rounded=0;orthogonalLoop=1;jettySize=auto;html=1;exitX=0.5;exitY=1;exitDx=0;exitDy=0;entryX=0.5;entryY=0;entryDx=0;entryDy=0;entryPerimeter=0;" edge="1" parent="1" source="q6MMMf9_-i9ZlwA7kOC0-2" target="q6MMMf9_-i9ZlwA7kOC0-3">
          <mxGeometry relative="1" as="geometry" />
        </mxCell>
        <mxCell id="q6MMMf9_-i9ZlwA7kOC0-2" value="escreva (&quot;Olá mundo!&quot;)" style="rounded=1;whiteSpace=wrap;html=1;absoluteArcSize=1;arcSize=14;strokeWidth=2;" vertex="1" parent="1">
          <mxGeometry x="364" y="200" width="100" height="100" as="geometry" />
        </mxCell>
        <mxCell id="q6MMMf9_-i9ZlwA7kOC0-3" value="FimAlgoritmo" style="strokeWidth=2;html=1;shape=mxgraph.flowchart.start_1;whiteSpace=wrap;" vertex="1" parent="1">
          <mxGeometry x="364" y="330" width="100" height="60" as="geometry" />
        </mxCell>
      </root>
    </mxGraphModel>
  </diagram>
</mxfile>
